<svg width="48" height="48" viewBox="0 0 48 48" fill="none" xmlns="http://www.w3.org/2000/svg">
<path d="M40.5 7.5H7.5C6.70435 7.5 5.94129 7.81607 5.37868 8.37868C4.81607 8.94129 4.5 9.70435 4.5 10.5V37.5C4.5 38.2956 4.81607 39.0587 5.37868 39.6213C5.94129 40.1839 6.70435 40.5 7.5 40.5H40.5C41.2957 40.5 42.0587 40.1839 42.6213 39.6213C43.1839 39.0587 43.5 38.2956 43.5 37.5V10.5C43.5 9.70435 43.1839 8.94129 42.6213 8.37868C42.0587 7.81607 41.2957 7.5 40.5 7.5ZM17.4 27.3C17.7183 27.5387 17.9287 27.894 17.9849 28.2879C18.0412 28.6817 17.9387 29.0817 17.7 29.4C17.4613 29.7183 17.106 29.9287 16.7121 29.9849C16.3183 30.0412 15.9183 29.9387 15.6 29.7L9.6 25.2C9.41371 25.0603 9.2625 24.8791 9.15836 24.6708C9.05422 24.4625 9 24.2329 9 24C9 23.7671 9.05422 23.5375 9.15836 23.3292C9.2625 23.1209 9.41371 22.9397 9.6 22.8L15.6 18.3C15.9183 18.0613 16.3183 17.9588 16.7121 18.0151C17.106 18.0713 17.4613 18.2817 17.7 18.6C17.9387 18.9183 18.0412 19.3183 17.9849 19.7121C17.9287 20.106 17.7183 20.4613 17.4 20.7L12.9994 24L17.4 27.3ZM28.4419 13.9125L22.4419 34.9125C22.3907 35.1053 22.3017 35.2859 22.1799 35.4438C22.0581 35.6017 21.9061 35.7338 21.7327 35.8323C21.5593 35.9307 21.368 35.9936 21.1699 36.0173C20.9719 36.0409 20.7712 36.0249 20.5794 35.97C20.3877 35.9152 20.2089 35.8226 20.0533 35.6978C19.8978 35.573 19.7687 35.4185 19.6736 35.2432C19.5785 35.0679 19.5193 34.8754 19.4995 34.677C19.4796 34.4785 19.4996 34.2781 19.5581 34.0875L25.5581 13.0875C25.6734 12.712 25.9315 12.3967 26.2767 12.2094C26.622 12.0221 27.0269 11.9777 27.4046 12.0857C27.7823 12.1938 28.1025 12.4456 28.2964 12.7872C28.4904 13.1288 28.5426 13.5328 28.4419 13.9125ZM38.4 25.2L32.4 29.7C32.0817 29.9387 31.6817 30.0412 31.2879 29.9849C30.894 29.9287 30.5387 29.7183 30.3 29.4C30.0613 29.0817 29.9588 28.6817 30.0151 28.2879C30.0713 27.894 30.2817 27.5387 30.6 27.3L35.0006 24L30.6 20.7C30.4424 20.5818 30.3097 20.4337 30.2093 20.2642C30.1089 20.0947 30.0429 19.9071 30.0151 19.7121C29.9872 19.5171 29.998 19.3185 30.0469 19.1277C30.0958 18.9369 30.1818 18.7576 30.3 18.6C30.4182 18.4424 30.5663 18.3096 30.7358 18.2093C30.9053 18.1089 31.0929 18.0429 31.2879 18.0151C31.4829 17.9872 31.6814 17.998 31.8723 18.0469C32.0631 18.0958 32.2424 18.1818 32.4 18.3L38.4 22.8C38.5863 22.9397 38.7375 23.1209 38.8416 23.3292C38.9458 23.5375 39 23.7671 39 24C39 24.2329 38.9458 24.4625 38.8416 24.6708C38.7375 24.8791 38.5863 25.0603 38.4 25.2Z" fill="white"/>
</svg>
