<svg width="48" height="48" viewBox="0 0 48 48" fill="none" xmlns="http://www.w3.org/2000/svg">
<path d="M41.94 12.4031L25.44 3.37497C24.9991 3.13138 24.5037 3.0036 24 3.0036C23.4963 3.0036 23.0009 3.13138 22.56 3.37497L6.06 12.4068C5.58879 12.6647 5.19544 13.0443 4.92103 13.506C4.64663 13.9678 4.50122 14.4947 4.5 15.0318V32.9643C4.50122 33.5015 4.64663 34.0284 4.92103 34.4902C5.19544 34.9519 5.58879 35.3315 6.06 35.5893L22.56 44.6212C23.0009 44.8648 23.4963 44.9926 24 44.9926C24.5037 44.9926 24.9991 44.8648 25.44 44.6212L41.94 35.5893C42.4112 35.3315 42.8046 34.9519 43.079 34.4902C43.3534 34.0284 43.4988 33.5015 43.5 32.9643V15.0337C43.4998 14.4956 43.3549 13.9675 43.0804 13.5047C42.8059 13.0419 42.412 12.6614 41.94 12.4031ZM24 22.5L8.93438 14.25L24 5.99997L39.0656 14.25L24 22.5ZM25.5 41.1825V25.0931L40.5 16.8843V32.9643L25.5 41.1825Z" fill="white"/>
</svg>
