<svg width="48" height="48" viewBox="0 0 48 48" fill="none" xmlns="http://www.w3.org/2000/svg">
<path d="M45.6218 15.255L32.7443 2.3775C32.4657 2.09885 32.1349 1.87781 31.7709 1.72701C31.4069 1.5762 31.0167 1.49858 30.6227 1.49858C30.2287 1.49858 29.8385 1.5762 29.4745 1.72701C29.1105 1.87781 28.7797 2.09885 28.5011 2.3775L23.1686 7.71L12.2936 11.79C11.7995 11.9739 11.3625 12.2847 11.0268 12.6913C10.691 13.0978 10.4683 13.5856 10.3811 14.1056L6.48677 37.4681C6.46066 37.6248 6.48495 37.7857 6.55614 37.9276C6.62733 38.0696 6.74175 38.1853 6.88291 38.2581C7.02406 38.3308 7.18468 38.3569 7.34161 38.3325C7.49854 38.3082 7.64369 38.2346 7.75614 38.1225L18.4436 27.435C18.105 26.7305 17.957 25.9496 18.0143 25.17C18.084 24.211 18.4591 23.2995 19.0845 22.5692C19.71 21.8388 20.553 21.328 21.4899 21.1117C22.4268 20.8953 23.4083 20.9847 24.2907 21.3669C25.1731 21.749 25.9099 22.4037 26.393 23.2351C26.8762 24.0664 27.0804 25.0307 26.9756 25.9865C26.8709 26.9423 26.4627 27.8395 25.8109 28.5465C25.1592 29.2534 24.2981 29.733 23.3539 29.915C22.4097 30.0969 21.4321 29.9716 20.5643 29.5575L9.87677 40.245C9.76463 40.3575 9.69108 40.5026 9.66672 40.6595C9.64236 40.8165 9.66845 40.9771 9.74121 41.1182C9.81398 41.2594 9.92968 41.3738 10.0716 41.445C10.2136 41.5162 10.3745 41.5405 10.5311 41.5144L33.8955 37.62C34.4147 37.5335 34.902 37.3119 35.3084 36.9776C35.7149 36.6432 36.0262 36.2078 36.2111 35.715L40.293 24.8269L45.6218 19.5C45.9004 19.2214 46.1215 18.8907 46.2723 18.5266C46.4231 18.1626 46.5007 17.7725 46.5007 17.3784C46.5007 16.9844 46.4231 16.5943 46.2723 16.2302C46.1215 15.8662 45.9004 15.5355 45.6218 15.2569V15.255ZM39.0011 21.8775L26.1236 9L30.6236 4.5L43.5011 17.3775L39.0011 21.8775Z" fill="white"/>
</svg>
