<svg width="48" height="48" viewBox="0 0 48 48" fill="none" xmlns="http://www.w3.org/2000/svg">
<path d="M42 7.5V14.25C42 14.6478 41.842 15.0294 41.5607 15.3107C41.2794 15.592 40.8978 15.75 40.5 15.75C40.1022 15.75 39.7206 15.592 39.4393 15.3107C39.158 15.0294 39 14.6478 39 14.25V9H33.75C33.3522 9 32.9706 8.84196 32.6893 8.56066C32.408 8.27936 32.25 7.89782 32.25 7.5C32.25 7.10218 32.408 6.72064 32.6893 6.43934C32.9706 6.15804 33.3522 6 33.75 6H40.5C40.8978 6 41.2794 6.15804 41.5607 6.43934C41.842 6.72064 42 7.10218 42 7.5ZM40.5 32.25C40.1022 32.25 39.7206 32.408 39.4393 32.6893C39.158 32.9706 39 33.3522 39 33.75V39H33.75C33.3522 39 32.9706 39.158 32.6893 39.4393C32.408 39.7206 32.25 40.1022 32.25 40.5C32.25 40.8978 32.408 41.2794 32.6893 41.5607C32.9706 41.842 33.3522 42 33.75 42H40.5C40.8978 42 41.2794 41.842 41.5607 41.5607C41.842 41.2794 42 40.8978 42 40.5V33.75C42 33.3522 41.842 32.9706 41.5607 32.6893C41.2794 32.408 40.8978 32.25 40.5 32.25ZM14.25 39H9V33.75C9 33.3522 8.84196 32.9706 8.56066 32.6893C8.27936 32.408 7.89782 32.25 7.5 32.25C7.10218 32.25 6.72064 32.408 6.43934 32.6893C6.15804 32.9706 6 33.3522 6 33.75V40.5C6 40.8978 6.15804 41.2794 6.43934 41.5607C6.72064 41.842 7.10218 42 7.5 42H14.25C14.6478 42 15.0294 41.842 15.3107 41.5607C15.592 41.2794 15.75 40.8978 15.75 40.5C15.75 40.1022 15.592 39.7206 15.3107 39.4393C15.0294 39.158 14.6478 39 14.25 39ZM7.5 15.75C7.89782 15.75 8.27936 15.592 8.56066 15.3107C8.84196 15.0294 9 14.6478 9 14.25V9H14.25C14.6478 9 15.0294 8.84196 15.3107 8.56066C15.592 8.27936 15.75 7.89782 15.75 7.5C15.75 7.10218 15.592 6.72064 15.3107 6.43934C15.0294 6.15804 14.6478 6 14.25 6H7.5C7.10218 6 6.72064 6.15804 6.43934 6.43934C6.15804 6.72064 6 7.10218 6 7.5V14.25C6 14.6478 6.15804 15.0294 6.43934 15.3107C6.72064 15.592 7.10218 15.75 7.5 15.75ZM18.9375 26.5331C16.8999 27.4171 15.1288 28.8184 13.8 30.5981C13.6323 30.821 13.5301 31.0862 13.5048 31.3639C13.4795 31.6416 13.5321 31.9209 13.6567 32.1704C13.7814 32.4199 13.9731 32.6297 14.2104 32.7762C14.4477 32.9228 14.7211 33.0003 15 33H33C33.2789 33.0003 33.5523 32.9228 33.7896 32.7762C34.0269 32.6297 34.2186 32.4199 34.3433 32.1704C34.4679 31.9209 34.5205 31.6416 34.4952 31.3639C34.4699 31.0862 34.3677 30.821 34.2 30.5981C32.8712 28.8184 31.1001 27.4171 29.0625 26.5331C30.1794 25.5134 30.9619 24.1798 31.3074 22.7074C31.6528 21.2349 31.545 19.6925 30.9981 18.2824C30.4513 16.8723 29.4909 15.6606 28.243 14.8061C26.9951 13.9516 25.518 13.4944 24.0056 13.4944C22.4932 13.4944 21.0162 13.9516 19.7683 14.8061C18.5204 15.6606 17.56 16.8723 17.0131 18.2824C16.4662 19.6925 16.3584 21.2349 16.7039 22.7074C17.0493 24.1798 17.8318 25.5134 18.9487 26.5331H18.9375Z" fill="white"/>
</svg>
