<svg width="25" height="28" viewBox="0 0 25 28" fill="none" xmlns="http://www.w3.org/2000/svg">
<path d="M19.3344 19.6356C17.9647 20.862 16.1563 21.5418 14.1718 21.5418C9.79698 21.5418 6.58429 18.3418 6.58429 13.9483C6.58429 9.55482 9.69477 6.48956 14.1718 6.48956C16.1217 6.48956 17.9647 7.13644 19.369 8.36286L20.3235 9.18047L24.5646 4.95771L23.5032 4.00383C21.0076 1.75931 17.6942 0.5 14.1702 0.5C6.30753 0.5 0.597656 6.15124 0.597656 13.9154C0.597656 21.6467 6.44434 27.5 14.1702 27.5C17.7603 27.5 21.1082 26.2407 23.5724 23.9601L24.5977 23.0063L20.2905 18.7866L19.3344 19.6356Z" fill="black"/>
<path d="M13.9642 9.48804C16.4771 9.48804 18.5135 11.5133 18.5135 14.0178C18.5135 16.5192 16.4771 18.5476 13.9642 18.5476C11.4528 18.5476 9.41797 16.5192 9.41797 14.0178C9.41954 11.5148 11.4544 9.48804 13.9642 9.48804Z" fill="#FF3D2E"/>
</svg>
