<svg width="25" height="24" viewBox="0 0 25 24" fill="none" xmlns="http://www.w3.org/2000/svg">
<path d="M5.28673 3.18613C5.28639 3.85404 5.02075 4.49446 4.54822 4.96651C4.0757 5.43856 3.43502 5.70357 2.7671 5.70323C2.09919 5.7029 1.45877 5.43725 0.986721 4.96473C0.514673 4.49221 0.249666 3.85152 0.25 3.18361C0.250334 2.5157 0.515981 1.87527 0.988502 1.40323C1.46102 0.931177 2.10171 0.66617 2.76962 0.666504C3.43753 0.666838 4.07796 0.932485 4.55001 1.40501C5.02205 1.87753 5.28706 2.51822 5.28673 3.18613ZM5.36228 7.56808H0.325551V23.333H5.36228V7.56808ZM13.3203 7.56808H8.30876V23.333H13.2699V15.0602C13.2699 10.4516 19.2762 10.0235 19.2762 15.0602V23.333H24.25V13.3477C24.25 5.57857 15.3602 5.86818 13.2699 9.6835L13.3203 7.56808Z" fill="black"/>
</svg>
