<svg width="40" height="40" viewBox="0 0 40 40" fill="none" xmlns="http://www.w3.org/2000/svg">
<rect width="40" height="40" rx="8" fill="black" fill-opacity="0.1"/>
<g clip-path="url(#clip0_1115_7233)">
<path d="M11 13.9747C11 13.4023 11.2027 12.9301 11.6081 12.5581C12.0135 12.186 12.5405 12 13.1892 12C13.8263 12 14.3417 12.1832 14.7355 12.5495C15.1409 12.9273 15.3436 13.4195 15.3436 14.0263C15.3436 14.5758 15.1467 15.0337 14.7529 15.4C14.3475 15.7778 13.8147 15.9667 13.1544 15.9667H13.1371C12.5 15.9667 11.9846 15.7778 11.5907 15.4C11.1969 15.0222 11 14.5471 11 13.9747ZM11.2259 29V17.5293H15.083V29H11.2259ZM17.2201 29H21.0772V22.5949C21.0772 22.1942 21.1236 21.8852 21.2162 21.6677C21.3784 21.2784 21.6245 20.9493 21.9546 20.6803C22.2847 20.4113 22.6988 20.2768 23.1969 20.2768C24.4942 20.2768 25.1429 21.1411 25.1429 22.8697V29H29V22.4232C29 20.7289 28.5946 19.4439 27.7838 18.5682C26.973 17.6924 25.9016 17.2545 24.5695 17.2545C23.0753 17.2545 21.9112 17.8899 21.0772 19.1606V19.1949H21.0598L21.0772 19.1606V17.5293H17.2201C17.2432 17.8956 17.2548 19.0347 17.2548 20.9464C17.2548 22.8582 17.2432 25.5427 17.2201 29Z" fill="black"/>
</g>
<defs>
<clipPath id="clip0_1115_7233">
<rect width="18" height="17" fill="white" transform="translate(11 12)"/>
</clipPath>
</defs>
</svg>
