<svg width="26" height="26" viewBox="0 0 26 26" fill="none" xmlns="http://www.w3.org/2000/svg">
<path d="M24.8874 9.99L11.7312 0.777894C11.414 0.555784 11.0215 0.468781 10.6402 0.536024C10.2588 0.603267 9.9198 0.819247 9.69769 1.13645L0.485588 14.2927C0.263479 14.6099 0.176475 15.0024 0.243718 15.3837C0.310961 15.7651 0.526942 16.1041 0.844147 16.3262L14.0004 25.5383C14.3176 25.7604 14.71 25.8474 15.0914 25.7802C15.4727 25.7129 15.8118 25.4969 16.0339 25.1797L25.246 12.0235C25.4681 11.7063 25.5551 11.3138 25.4879 10.9325C25.4206 10.5511 25.2046 10.2121 24.8874 9.99ZM7.96135 15.0712C7.85029 15.2298 7.68078 15.3378 7.49011 15.3714C7.29943 15.4051 7.10321 15.3616 6.94461 15.2505C6.786 15.1395 6.67801 14.9699 6.64439 14.7793C6.61077 14.5886 6.65427 14.3924 6.76533 14.2338L10.1152 9.44968C10.2262 9.29108 10.3957 9.18308 10.5864 9.14946C10.7771 9.11584 10.9733 9.15934 11.1319 9.2704C11.2905 9.38145 11.3985 9.55096 11.4321 9.74164C11.4658 9.93232 11.4223 10.1285 11.3112 10.2871L7.96135 15.0712ZM11.5507 8.67239C11.3732 8.54816 11.2367 8.37412 11.1582 8.17226C11.0797 7.9704 11.0628 7.7498 11.1097 7.53836C11.1565 7.32691 11.2651 7.13411 11.4215 6.98434C11.578 6.83457 11.7753 6.73456 11.9886 6.69695C12.2019 6.65934 12.4215 6.68583 12.6198 6.77305C12.818 6.86028 12.9859 7.00433 13.1023 7.187C13.2187 7.36966 13.2783 7.58273 13.2736 7.79926C13.2688 8.01579 13.2 8.22605 13.0758 8.40347C12.9092 8.64137 12.6549 8.80336 12.3689 8.85379C12.0829 8.90422 11.7886 8.83897 11.5507 8.67239ZM14.5395 19.6773C14.4284 19.8359 14.2589 19.9439 14.0682 19.9775C13.8776 20.0111 13.6813 19.9676 13.5227 19.8566C13.3641 19.7455 13.2561 19.576 13.2225 19.3853C13.1889 19.1946 13.2324 18.9984 13.3434 18.8398L15.2277 16.1488C15.5054 15.7523 15.6141 15.2617 15.5301 14.785C15.446 14.3083 15.1761 13.8845 14.7795 13.6069C14.383 13.3293 13.8925 13.2205 13.4158 13.3046C12.9391 13.3886 12.5153 13.6586 12.2377 14.0551L10.3534 16.7462C10.2423 16.9048 10.0728 17.0128 9.88215 17.0464C9.69148 17.08 9.49525 17.0365 9.33665 16.9254C9.17805 16.8144 9.07006 16.6449 9.03644 16.4542C9.00281 16.2635 9.04632 16.0673 9.15737 15.9087L12.5072 11.1246C12.6105 10.9786 12.7638 10.8757 12.938 10.8352C13.1122 10.7948 13.2952 10.8197 13.4522 10.9052C13.6093 10.9907 13.7295 11.1309 13.79 11.2992C13.8506 11.4674 13.8473 11.652 13.7807 11.818C14.3774 11.8269 14.9605 11.9981 15.4672 12.3132C15.9739 12.6284 16.3853 13.0757 16.657 13.607C16.9287 14.1384 17.0506 14.7337 17.0095 15.329C16.9684 15.9244 16.7659 16.4973 16.4238 16.9862L14.5395 19.6773Z" fill="#0A66C2"/>
</svg>
