<svg width="24" height="20" viewBox="0 0 24 20" fill="none" xmlns="http://www.w3.org/2000/svg">
<path d="M18.4993 2.24501C17.2522 2.26894 16.0507 2.76054 15.0969 3.63714C14.143 4.51374 13.4949 5.72189 13.2616 7.05843C12.0905 5.07299 11.1733 2.92256 10.5351 0.666626H7.83259V8.49332C7.83259 9.23368 7.56297 9.94371 7.08306 10.4672C6.60315 10.9907 5.95224 11.2848 5.27354 11.2848C4.59484 11.2848 3.94394 10.9907 3.46403 10.4672C2.98411 9.94371 2.7145 9.23368 2.7145 8.49332V0.666626L0 0.731848V8.55854C0.00792874 10.0808 0.569877 11.5372 1.56222 12.6075C2.55457 13.6777 3.89602 14.2742 5.29148 14.2655C6.68694 14.2569 8.02209 13.6439 9.00323 12.5614C9.98436 11.4789 10.5311 10.0155 10.5232 8.49332V7.18887C11.0969 8.41645 11.7566 9.59394 12.4963 10.7109L10.846 19.3333H13.6203L14.8161 13.0589C15.9244 13.8358 17.2179 14.2396 18.5351 14.2199C19.9845 14.2199 21.3745 13.5918 22.3994 12.4738C23.4242 11.3559 24 9.83956 24 8.25852C24 6.67748 23.4242 5.16119 22.3994 4.04322C21.3745 2.92525 19.9845 2.29719 18.5351 2.29719L18.4993 2.24501ZM18.4993 11.1544C17.3756 11.1148 16.2987 10.6542 15.4499 9.84995L15.725 8.6629V8.59768C15.9163 7.29323 16.5142 5.20611 18.5351 5.20611C18.8895 5.20267 19.2409 5.27561 19.5694 5.42076C19.8978 5.5659 20.1967 5.78038 20.4489 6.05188C20.7011 6.32338 20.9017 6.64656 21.0391 7.00285C21.1765 7.35914 21.2481 7.74154 21.2496 8.12807C21.224 8.9107 20.9315 9.65472 20.4294 10.2145C19.9274 10.7742 19.2518 11.1094 18.5351 11.1544H18.4993Z" fill="black"/>
</svg>
