<svg width="1244" height="832" viewBox="0 0 1244 832" fill="none" xmlns="http://www.w3.org/2000/svg">
<g filter="url(#filter0_d_1775_6934)">
<g clip-path="url(#clip0_1775_6934)">
<rect x="35" y="28" width="1168.07" height="756" rx="24.3348" fill="white"/>
<path d="M52.8477 610.412C52.8477 603.244 58.6583 597.433 65.8262 597.433H206.968C214.136 597.433 219.946 603.244 219.946 610.412V746.687C219.946 753.855 214.136 759.665 206.968 759.665H65.8262C58.6584 759.665 52.8477 753.855 52.8477 746.687V610.412Z" fill="#F0F0F0"/>
<g opacity="0.4">
<rect x="52.0352" y="124.528" width="94.9056" height="19.4678" rx="8" fill="#D9D9D9"/>
</g>
<g opacity="0.4">
<rect x="52.0352" y="165.086" width="94.9056" height="19.4678" rx="8" fill="#D9D9D9"/>
</g>
<g opacity="0.4">
<rect x="52.0352" y="205.644" width="94.9056" height="19.4678" rx="8" fill="#D9D9D9"/>
</g>
<g opacity="0.4">
<rect x="52.0352" y="246.202" width="94.9056" height="19.4678" rx="8" fill="#D9D9D9"/>
</g>
<g opacity="0.4">
<rect x="52.0352" y="286.76" width="94.9056" height="19.4678" rx="8" fill="#D9D9D9"/>
</g>
<path d="M238.195 28V783.189" stroke="#DBDBDB" stroke-width="0.811159"/>
<path d="M35.8125 99.382H1202.66" stroke="#DBDBDB" stroke-width="0.811159"/>
<path d="M45.5469 329.345H227.246" stroke="#DBDBDB" stroke-width="0.811159"/>
<g opacity="0.4">
<rect x="52.8477" y="354.086" width="164.664" height="12.9785" rx="6.48927" fill="#D9D9D9"/>
</g>
<g opacity="0.4">
<rect x="44.7344" y="383.287" width="182.511" height="31.6352" rx="4.86695" fill="#D9D9D9"/>
</g>
<g opacity="0.4">
<rect x="55.2793" y="431.146" width="131.489" height="16" rx="8" fill="#D9D9D9"/>
</g>
<g opacity="0.4">
<rect x="55.2793" y="471.481" width="131.489" height="16" rx="8" fill="#D9D9D9"/>
</g>
<g opacity="0.4">
<rect x="55.2793" y="511.815" width="131.489" height="16" rx="8" fill="#D9D9D9"/>
</g>
<path d="M277.537 290.004C277.537 282.836 283.348 277.026 290.516 277.026H551.709C558.877 277.026 564.687 282.836 564.687 290.004V784H277.537V290.004Z" fill="#F5F5F5"/>
<path d="M293.762 328.129H548.466" stroke="#C4C4C4" stroke-width="2.43348"/>
<path d="M576.855 290.004C576.855 282.836 582.666 277.026 589.834 277.026H851.838C859.006 277.026 864.817 282.836 864.817 290.004V784H576.855V290.004Z" fill="#F5F5F5"/>
<rect x="592.76" y="293.36" width="48.4893" height="16" rx="4" fill="#D9D9D9"/>
<rect x="652.25" y="293.249" width="16.2232" height="16.2232" rx="8.11159" fill="#D9D9D9"/>
<path d="M876.984 290.004C876.984 282.836 882.795 277.026 889.963 277.026H1151.16C1158.32 277.026 1164.13 282.836 1164.13 290.004V784H876.984V290.004Z" fill="#F5F5F5"/>
<rect x="893" y="293.112" width="48.4893" height="16" rx="4" fill="#D9D9D9"/>
<rect x="952.49" y="293" width="16.2232" height="16.2232" rx="8.11159" fill="#D9D9D9"/>
<g opacity="0.4">
<rect x="52.8457" y="53.691" width="165.172" height="20" rx="8" fill="#D9D9D9"/>
</g>
<rect x="278.043" y="45.8456" width="338.253" height="35.691" rx="8" fill="#F0F0F0"/>
<rect x="941.57" y="53.9572" width="19.4678" height="19.4678" rx="4" fill="#D9D9D9"/>
<rect x="902.635" y="53.9572" width="19.4678" height="19.4678" rx="4" fill="#D9D9D9"/>
<rect x="863.699" y="53.9572" width="19.4678" height="19.4678" rx="4" fill="#D9D9D9"/>
<rect x="1150.04" y="55.8027" width="14.6009" height="14.6009" rx="4" fill="#D9D9D9"/>
<rect x="1001.6" y="47.691" width="92.3689" height="32" rx="8" fill="#D9D9D9"/>
<rect x="386.232" y="210.511" width="98.9614" height="32.4464" rx="4.86695" fill="#D9D9D9"/>
<rect x="277.537" y="210.511" width="98.9614" height="32.4464" rx="4.86695" fill="#D9D9D9"/>
<rect x="965.848" y="210.511" width="98.9614" height="32.4464" rx="4.86695" fill="#D9D9D9"/>
<path d="M1080.81 215.378V238.09" stroke="#787486" stroke-width="0.811159"/>
<rect x="1096.81" y="210.511" width="32.4464" height="32.4464" rx="4" fill="#D9D9D9"/>
<rect x="1147.1" y="218.622" width="17.0343" height="17.0343" rx="4" fill="#D9D9D9"/>
<path d="M593.078 328.129H847.782" stroke="#C4C4C4" stroke-width="2.43348"/>
<path d="M893.207 328.129H1147.91" stroke="#C4C4C4" stroke-width="2.43348"/>
<rect x="893.207" y="350.841" width="255" height="265" rx="12.9785" fill="white"/>
<rect x="909.635" y="366.094" width="29.2017" height="18.6567" rx="3.24464" fill="#F0F0F0"/>
<rect x="1119.5" y="366.094" width="13" height="16" rx="4" fill="#F0F0F0"/>
<rect x="909.635" y="388.751" width="100" height="18" rx="4" fill="#F0F0F0"/>
<rect x="909.635" y="411.751" width="222.867" height="146" rx="4" fill="#F0F0F0"/>
<rect x="1086.47" y="583.996" width="12.9785" height="12.9785" rx="4" fill="#F0F0F0"/>
<rect x="995.619" y="583.996" width="12.9785" height="12.9785" rx="4" fill="#F0F0F0"/>
<rect x="1012.65" y="584.807" width="63" height="12" rx="4" fill="#F0F0F0"/>
<rect x="1103.5" y="584.807" width="29" height="12" rx="4" fill="#F0F0F0"/>
<circle cx="951.003" cy="590.485" r="9.32833" fill="#F0F0F0" stroke="white" stroke-width="0.811159"/>
<path d="M944.92 590.485C944.92 595.621 940.578 599.813 935.186 599.813C929.795 599.813 925.452 595.621 925.452 590.485C925.452 585.348 929.795 581.157 935.186 581.157C940.578 581.157 944.92 585.348 944.92 590.485Z" fill="#F0F0F0" stroke="white" stroke-width="0.811159"/>
<circle cx="919.369" cy="590.485" r="9.32833" fill="#F0F0F0" stroke="white" stroke-width="0.811159"/>
<rect x="893.207" y="631.841" width="254.704" height="143.575" rx="12.9785" fill="white"/>
<rect x="1086.26" y="742.97" width="12.9785" height="12.9785" rx="4" fill="#F0F0F0"/>
<rect x="995.412" y="742.97" width="12.9785" height="12.9785" rx="4" fill="#F0F0F0"/>
<rect x="1012.45" y="743.781" width="63" height="12" rx="4" fill="#F0F0F0"/>
<rect x="1103.29" y="743.781" width="29" height="12" rx="4" fill="#F0F0F0"/>
<circle cx="950.796" cy="749.459" r="9.32833" fill="#F0F0F0" stroke="white" stroke-width="0.811159"/>
<path d="M944.713 749.459C944.713 754.596 940.371 758.788 934.979 758.788C929.588 758.788 925.245 754.596 925.245 749.459C925.245 744.323 929.588 740.131 934.979 740.131C940.371 740.131 944.713 744.323 944.713 749.459Z" fill="#F0F0F0" stroke="white" stroke-width="0.811159"/>
<circle cx="919.162" cy="749.459" r="9.32833" fill="#F0F0F0" stroke="white" stroke-width="0.811159"/>
<rect x="909.43" y="669.966" width="100" height="18" rx="4" fill="#F0F0F0"/>
<rect x="1118.71" y="647.253" width="13" height="16" rx="4" fill="#F0F0F0"/>
<rect x="909.43" y="692.678" width="222.258" height="24" rx="4" fill="#F0F0F0"/>
<rect x="909.43" y="648.064" width="29.2017" height="18.6567" rx="3.24464" fill="#F0F0F0"/>
<rect x="277.537" y="132.64" width="205" height="45" rx="8" fill="#D9D9D9"/>
<rect x="506.172" y="142.972" width="24.3348" height="24.3348" rx="4" fill="#D9D9D9"/>
<rect x="540.242" y="142.972" width="24.3348" height="24.3348" rx="4" fill="#D9D9D9"/>
<rect x="971.889" y="147.839" width="54.6009" height="16" rx="4" fill="#D9D9D9"/>
<circle cx="1051.38" cy="155.14" r="15.0064" fill="#D9D9D9" stroke="white" stroke-width="0.811159"/>
<circle cx="1075.71" cy="155.14" r="15.0064" fill="#D9D9D9" stroke="white" stroke-width="0.811159"/>
<circle cx="1100.05" cy="155.14" r="15.0064" fill="#D9D9D9" stroke="white" stroke-width="0.811159"/>
<circle cx="1124.39" cy="155.14" r="15.0064" fill="#D9D9D9" stroke="white" stroke-width="0.811159"/>
<circle cx="1148.72" cy="155.14" r="15.0064" fill="#D9D9D9" stroke="white" stroke-width="0.811159"/>
<rect x="593.889" y="350.841" width="254.706" height="298.124" rx="12.98" fill="white"/>
<rect x="606.996" y="364.841" width="29.2017" height="18.6567" rx="3.24464" fill="#F0F0F0"/>
<rect x="822.484" y="364.841" width="13" height="16" rx="4" fill="#F0F0F0"/>
<rect x="606.996" y="388.498" width="100" height="18" rx="4" fill="#F0F0F0"/>
<rect x="606.996" y="411.498" width="228.489" height="182" rx="6.48927" fill="#C4C4C4"/>
<rect x="783.83" y="618.742" width="12.9785" height="12.9785" rx="4" fill="#F0F0F0"/>
<rect x="692.98" y="618.742" width="12.9785" height="12.9785" rx="4" fill="#F0F0F0"/>
<rect x="710.014" y="619.554" width="63" height="12" rx="4" fill="#F0F0F0"/>
<rect x="800.863" y="619.554" width="29" height="12" rx="4" fill="#F0F0F0"/>
<circle cx="648.365" cy="625.232" r="9.32833" fill="#F0F0F0" stroke="white" stroke-width="0.811159"/>
<path d="M642.282 625.232C642.282 630.368 637.939 634.56 632.548 634.56C627.156 634.56 622.814 630.368 622.814 625.232C622.814 620.095 627.156 615.903 632.548 615.903C637.939 615.903 642.282 620.095 642.282 625.232Z" fill="#F0F0F0" stroke="white" stroke-width="0.811159"/>
<circle cx="616.73" cy="625.232" r="9.32833" fill="#F0F0F0" stroke="white" stroke-width="0.811159"/>
<rect x="593.889" y="664.966" width="255" height="178" rx="12.9785" fill="white"/>
<rect x="610.205" y="680.06" width="29.2017" height="18.6567" rx="3.24464" fill="#F0F0F0"/>
<rect x="820.072" y="680.06" width="13" height="16" rx="4" fill="#F0F0F0"/>
<rect x="610.205" y="702.717" width="100" height="18" rx="4" fill="#F0F0F0"/>
<rect x="610.205" y="725.717" width="106.433" height="64" rx="4" fill="#F0F0F0"/>
<rect x="726.639" y="725.717" width="106.433" height="64" rx="4" fill="#F0F0F0"/>
<rect x="293.76" y="294.983" width="48.4893" height="16" rx="4" fill="#D9D9D9"/>
<rect x="353.25" y="294.871" width="16.2232" height="16.2232" rx="8.11159" fill="#D9D9D9"/>
<rect x="528.996" y="293.249" width="19.4678" height="19.4678" rx="4" fill="#C4C4C4"/>
<rect x="293.76" y="350.841" width="254.704" height="143.575" rx="12.9785" fill="white"/>
<rect x="486.814" y="461.97" width="12.9785" height="12.9785" rx="4" fill="#F0F0F0"/>
<rect x="395.965" y="461.97" width="12.9785" height="12.9785" rx="4" fill="#F0F0F0"/>
<rect x="412.998" y="462.781" width="63" height="12" rx="4" fill="#F0F0F0"/>
<rect x="503.848" y="462.781" width="29" height="12" rx="4" fill="#F0F0F0"/>
<circle cx="351.349" cy="468.459" r="9.32833" fill="#F0F0F0" stroke="white" stroke-width="0.811159"/>
<path d="M345.266 468.459C345.266 473.596 340.924 477.788 335.532 477.788C330.14 477.788 325.798 473.596 325.798 468.459C325.798 463.323 330.14 459.131 335.532 459.131C340.924 459.131 345.266 463.323 345.266 468.459Z" fill="#F0F0F0" stroke="white" stroke-width="0.811159"/>
<circle cx="319.714" cy="468.459" r="9.32833" fill="#F0F0F0" stroke="white" stroke-width="0.811159"/>
<rect x="309.982" y="388.966" width="100" height="18" rx="4" fill="#F0F0F0"/>
<rect x="519.262" y="366.253" width="13" height="16" rx="4" fill="#F0F0F0"/>
<rect x="309.982" y="411.678" width="222.258" height="24" rx="4" fill="#F0F0F0"/>
<rect x="309.982" y="367.064" width="29.2017" height="18.6567" rx="3.24464" fill="#F0F0F0"/>
<rect x="293.76" y="510.416" width="254.704" height="143.575" rx="12.9785" fill="white"/>
<rect x="486.814" y="621.545" width="12.9785" height="12.9785" rx="4" fill="#F0F0F0"/>
<rect x="395.965" y="621.545" width="12.9785" height="12.9785" rx="4" fill="#F0F0F0"/>
<rect x="412.998" y="622.356" width="63" height="12" rx="4" fill="#F0F0F0"/>
<rect x="503.848" y="622.356" width="29" height="12" rx="4" fill="#F0F0F0"/>
<circle cx="351.349" cy="628.034" r="9.32833" fill="#F0F0F0" stroke="white" stroke-width="0.811159"/>
<path d="M345.266 628.034C345.266 633.171 340.924 637.363 335.532 637.363C330.14 637.363 325.798 633.171 325.798 628.034C325.798 622.898 330.14 618.706 335.532 618.706C340.924 618.706 345.266 622.898 345.266 628.034Z" fill="#F0F0F0" stroke="white" stroke-width="0.811159"/>
<circle cx="319.714" cy="628.034" r="9.32833" fill="#F0F0F0" stroke="white" stroke-width="0.811159"/>
<rect x="309.982" y="548.541" width="100" height="18" rx="4" fill="#F0F0F0"/>
<rect x="519.262" y="525.828" width="13" height="16" rx="4" fill="#F0F0F0"/>
<rect x="309.982" y="571.253" width="222.258" height="24" rx="4" fill="#F0F0F0"/>
<rect x="309.982" y="526.639" width="29.2017" height="18.6567" rx="3.24464" fill="#F0F0F0"/>
<rect x="293.76" y="669.991" width="254.704" height="143.575" rx="12.9785" fill="white"/>
<rect x="486.814" y="781.12" width="12.9785" height="12.9785" rx="4" fill="#F0F0F0"/>
<rect x="395.965" y="781.12" width="12.9785" height="12.9785" rx="4" fill="#F0F0F0"/>
<rect x="412.998" y="781.931" width="63" height="12" rx="4" fill="#F0F0F0"/>
<rect x="503.848" y="781.931" width="29" height="12" rx="4" fill="#F0F0F0"/>
<circle cx="351.349" cy="787.609" r="9.32833" fill="#F0F0F0" stroke="white" stroke-width="0.811159"/>
<path d="M345.266 787.609C345.266 792.746 340.924 796.938 335.532 796.938C330.14 796.938 325.798 792.746 325.798 787.609C325.798 782.473 330.14 778.281 335.532 778.281C340.924 778.281 345.266 782.473 345.266 787.609Z" fill="#F0F0F0" stroke="white" stroke-width="0.811159"/>
<circle cx="319.714" cy="787.609" r="9.32833" fill="#F0F0F0" stroke="white" stroke-width="0.811159"/>
<rect x="309.982" y="708.116" width="100" height="18" rx="4" fill="#F0F0F0"/>
<rect x="519.262" y="685.403" width="13" height="16" rx="4" fill="#F0F0F0"/>
<rect x="309.982" y="730.828" width="222.258" height="24" rx="4" fill="#F0F0F0"/>
<rect x="309.982" y="686.215" width="29.2017" height="18.6567" rx="3.24464" fill="#F0F0F0"/>
</g>
<rect x="35.4056" y="28.4056" width="1167.19" height="755.189" rx="23.9292" stroke="black" stroke-opacity="0.15" stroke-width="0.811159" shape-rendering="crispEdges"/>
</g>
<defs>
<filter id="filter0_d_1775_6934" x="0.931332" y="0.420603" width="1242.63" height="830.627" filterUnits="userSpaceOnUse" color-interpolation-filters="sRGB">
<feFlood flood-opacity="0" result="BackgroundImageFix"/>
<feColorMatrix in="SourceAlpha" type="matrix" values="0 0 0 0 0 0 0 0 0 0 0 0 0 0 0 0 0 0 127 0" result="hardAlpha"/>
<feMorphology radius="4.86695" operator="dilate" in="SourceAlpha" result="effect1_dropShadow_1775_6934"/>
<feOffset dx="3.24464" dy="9.73391"/>
<feGaussianBlur stdDeviation="16.2232"/>
<feComposite in2="hardAlpha" operator="out"/>
<feColorMatrix type="matrix" values="0 0 0 0 0 0 0 0 0 0 0 0 0 0 0 0 0 0 0.09 0"/>
<feBlend mode="normal" in2="BackgroundImageFix" result="effect1_dropShadow_1775_6934"/>
<feBlend mode="normal" in="SourceGraphic" in2="effect1_dropShadow_1775_6934" result="shape"/>
</filter>
<clipPath id="clip0_1775_6934">
<rect x="35" y="28" width="1168" height="756" rx="24.3348" fill="white"/>
</clipPath>
</defs>
</svg>
